<svg width="290" height="290" viewBox="0 0 290 290" fill="none" xmlns="http://www.w3.org/2000/svg">
<g clip-path="url(#clip0_294_6)">
<path d="M157.34 17.5851V225.521L145 249.277L132.66 225.213V17.5851C132.66 7.71277 124.947 0 115.074 0H17.5851C7.71277 0 0 7.71277 0 17.5851V272.723C0 282.287 7.71277 290 17.5851 290H44.4255C53.9894 290 62.0106 282.287 62.0106 272.415V101.5L80.5213 133.894V272.415C80.5213 281.979 88.234 290 98.1064 290H192.819C202.383 290 210.404 282.287 210.404 272.415V133.894L228.915 101.5V272.415C228.915 281.979 236.628 290 246.5 290H273.34C282.904 290 290.926 282.287 290.926 272.415V17.5851C290 7.71277 282.287 0 272.415 0H174.926C165.053 0 157.34 7.71277 157.34 17.5851Z" fill="white"/>
</g>
<defs>
<clipPath id="clip0_294_6">
<rect width="290" height="290" fill="white"/>
</clipPath>
</defs>
</svg>
