<svg width="171" height="170" viewBox="0 0 171 170" fill="none" xmlns="http://www.w3.org/2000/svg">
<g clip-path="url(#clip0_294_6)">
<path d="M92.7766 10.3085V132.202L85.5 146.128L78.2234 132.021V10.3085C78.2234 4.52128 73.6755 0 67.8543 0H10.3691C4.54787 0 0 4.52128 0 10.3085V159.872C0 165.479 4.54787 170 10.3691 170H26.1957C31.8351 170 36.5649 165.479 36.5649 159.691V59.5L47.4798 78.4894V159.691C47.4798 165.298 52.0277 170 57.8489 170H113.697C119.336 170 124.066 165.479 124.066 159.691V78.4894L134.981 59.5V159.691C134.981 165.298 139.529 170 145.35 170H161.177C166.816 170 171.546 165.479 171.546 159.691V10.3085C171 4.52128 166.452 0 160.631 0H103.146C97.3245 0 92.7766 4.52128 92.7766 10.3085Z" fill="#8453D2"/>
</g>
<defs>
<clipPath id="clip0_294_6">
<rect width="171" height="170" fill="white"/>
</clipPath>
</defs>
</svg>
